<svg width="54" height="57" viewBox="0 0 54 57" fill="none" xmlns="http://www.w3.org/2000/svg">
<path d="M26.1365 0.718299C25.7538 1.93018 25.4986 3.07828 25.2435 4.09881C24.0316 10.0306 22.9473 19.2154 22.9473 27.1245C22.9473 37.2023 24.797 44.346 26.9019 50.7881L19.5668 52.9567C17.6533 47.2163 15.8036 37.7763 15.8036 28.4002C15.8036 20.0446 16.9517 10.6685 17.6533 4.35394C17.7809 3.07828 17.9084 1.61126 17.8446 0.463165L26.1365 0.718299ZM14.7193 7.73445C26.8381 7.73445 36.4693 7.1604 46.2282 4.80042L46.292 12.1355C37.5537 13.7301 24.1592 14.6868 14.5279 14.6868C11.1474 14.6868 6.17232 14.3679 3.1745 14.2403L2.98315 6.90527C5.27935 7.22419 10.8285 7.73445 14.7193 7.73445ZM42.2736 17.1106C41.7634 18.2587 40.8066 21.1927 40.3601 22.5322C36.7245 34.0131 30.1548 42.6239 24.0954 47.0887C19.9495 50.1503 14.4003 52.9567 8.85121 52.9567C4.19504 52.9567 0.30426 50.1503 0.30426 43.6444C0.30426 34.651 8.34094 25.2748 18.4825 21.5754C22.6922 20.0446 27.9224 19.0879 32.7061 19.0879C44.6336 19.0879 53.4357 25.9764 53.4357 35.9266C53.4357 44.9838 48.0779 53.7221 32.451 56.1459L28.1775 49.3849C40.4877 48.0454 45.5266 41.8585 45.5266 35.5439C45.5266 30.1224 40.8704 25.53 32.2596 25.53C26.4554 25.53 21.863 27.1883 18.7376 28.5916C12.3593 31.5894 7.83068 37.7126 7.83068 41.986C7.83068 44.0909 8.65986 45.1752 10.7647 45.1752C13.7625 45.1752 18.036 43.0704 21.9268 39.4347C26.5829 35.1612 30.9202 29.4845 33.4715 20.6824C33.918 19.343 34.3645 16.6003 34.4283 15.1971L42.2736 17.1106Z" fill="#2AC5A0"/>
</svg>
