<svg width="55" height="52" viewBox="0 0 55 52" fill="none" xmlns="http://www.w3.org/2000/svg">
<path d="M54.3492 4.88254C53.7114 5.71172 52.4995 7.24252 51.9254 8.13549C48.9276 13.1106 42.8682 21.211 36.5537 25.6759L29.9202 20.3819C35.0867 17.2565 40.0618 11.6436 41.7201 8.51819C37.8294 8.51819 12.4436 8.51819 8.42529 8.51819C5.81018 8.51819 3.64155 8.64575 0.643738 8.96467V0.0350189C3.13128 0.417717 5.81018 0.736633 8.42529 0.736633C12.4436 0.736633 39.4877 0.736633 42.8044 0.736633C44.5904 0.736633 48.0984 0.481499 49.3103 0.162584L54.3492 4.88254ZM28.3894 13.4295C28.3894 29.2477 28.0067 42.2595 10.6577 51.6356L3.19507 45.5762C5.29991 44.8746 7.59611 43.7903 9.95609 42.0044C17.9928 36.3914 19.5236 29.6942 19.5236 19.2338C19.5236 17.1927 19.4598 15.5343 19.1409 13.4295H28.3894Z" fill="#2AC5A0"/>
</svg>
